<svg width="80" height="80" viewBox="0 0 80 80" fill="none" xmlns="http://www.w3.org/2000/svg">
    <g clip-path="url(#clip0_426_2)">
        <path
            d="M40 1C61.5391 1 79 18.4609 79 40C79 61.5391 61.5391 79 40 79C18.4609 79 1 61.5391 1 40C1 18.4609 18.4609 1 40 1Z"
            stroke="#727272" stroke-width="2" stroke-linecap="round" stroke-linejoin="round" />
        <path
            d="M56 36C56 44.8366 48.8366 52 40 52C31.1634 52 24 44.8366 24 36C24 27.1634 31.1634 20 40 20C48.8366 20 56 27.1634 56 36Z"
            fill="#727272" />
        <path
            d="M55.9027 57.74C60.0622 61.2173 62.9066 67.0061 64 72.3653C57.2635 77.1673 48.9702 80 40.0015 80C31.0315 80 22.7371 77.1664 16 72.3632C17.0934 67.0055 19.9364 61.2193 24.0937 57.7427C28.5282 54.0343 34.1711 52.0005 40.0015 52C45.8319 51.9995 51.4676 54.0324 55.9027 57.74Z"
            fill="#727272" />
    </g>
    <defs>
        <clipPath id="clip0_426_2">
            <rect width="80" height="80" fill="white" />
        </clipPath>
    </defs>
</svg>